<?xml version="1.0" encoding="utf-8"?>
<!-- Generator: Adobe Illustrator 16.0.0, SVG Export Plug-In . SVG Version: 6.00 Build 0)  -->
<!DOCTYPE svg PUBLIC "-//W3C//DTD SVG 1.1//EN" "http://www.w3.org/Graphics/SVG/1.1/DTD/svg11.dtd">
<svg version="1.1" id="Layer_1" xmlns="http://www.w3.org/2000/svg" xmlns:xlink="http://www.w3.org/1999/xlink" x="0px" y="0px"
	 width="1462.415527px" height="634.830078px" viewBox="0 0 1462.415527 634.830078"
	 enable-background="new 0 0 1462.415527 634.830078" xml:space="preserve">
<path fill="#182650" d="M505.999023,360.739258c-10.393066-108.684082-90.365234-197.053223-194.865234-220.050293
	c-14.900879-3.279785-24.895996-17.293945-22.915039-32.422852L297.158691,40c0-22.09082-17.908691-40-40-40
	c-22.09082,0-40,17.90918-40,40l8.941406,68.270996c1.967773,15.025879-7.850098,29.119141-22.655273,32.359863
	C98.816895,163.538086,18.720703,251.963867,8.317871,360.739258C1.575684,369.149414,0,384.830078,0,384.830078
	s1.577637,15.699219,8.331055,24.104492c12.213867,126.555664,119.524902,226.076172,249.184082,225.895508
	c129.781738-0.180664,236.373047-99.257813,248.483887-225.90918c6.742676-8.410156,8.318848-24.09082,8.318848-24.09082
	S512.741699,369.149414,505.999023,360.739258 M257.158691,18.170898c11.712891,0,21.208984,9.496094,21.208984,21.208984
	s-9.496094,21.208984-21.208984,21.208984s-21.208984-9.496094-21.208984-21.208984S245.445801,18.170898,257.158691,18.170898
	 M257.158691,584.830078c-110.457031,0-200-89.542969-200-200s89.542969-200,200-200s200,89.542969,200,200
	S367.615723,584.830078,257.158691,584.830078"/>
<path fill="#182650" d="M253.592773,229.493652v-31.32666c0-1.961914,1.60498-3.566406,3.565918-3.566406
	c1.961914,0,3.565918,1.604492,3.565918,3.566406v31.32666c0,1.961426-1.604004,3.565918-3.565918,3.565918
	C255.197754,233.05957,253.592773,231.455078,253.592773,229.493652"/>
<path fill="#182650" d="M260.725098,531.166016v31.327148c0,1.961914-1.60498,3.566406-3.565918,3.566406
	c-1.962402,0-3.565918-1.604492-3.565918-3.566406v-31.327148c0-1.960938,1.603516-3.56543,3.565918-3.56543
	C259.120117,527.600586,260.725098,529.205078,260.725098,531.166016"/>
<path fill="#182650" d="M243.146973,212.901367c0.205078,1.951172-1.222656,3.713867-3.173828,3.918945
	c-1.951172,0.206055-3.713867-1.222656-3.918945-3.172852l-1.48291-14.109863
	c-0.205078-1.951172,1.223145-3.715332,3.173828-3.92041c1.950195-0.20459,3.713867,1.224609,3.918945,3.174316
	L243.146973,212.901367z"/>
<path fill="#182650" d="M279.746582,561.123047c0.205078,1.951172-1.222656,3.713867-3.173828,3.918945
	s-3.713867-1.222656-3.918945-3.172852l-1.48291-14.110352c-0.205078-1.951172,1.223145-3.714844,3.173828-3.919922
	c1.950195-0.205078,3.713867,1.222656,3.918945,3.173828L279.746582,561.123047z"/>
<path fill="#182650" d="M225.723145,215.283203c0.407715,1.917969-0.828125,3.822266-2.74707,4.230469
	c-1.917969,0.406738-3.822266-0.829102-4.229492-2.74707l-2.949707-13.87793c-0.408203-1.918457,0.828125-3.822266,2.74707-4.229492
	c1.917969-0.408203,3.821777,0.828125,4.229004,2.74707L225.723145,215.283203z"/>
<path fill="#182650" d="M298.520996,557.771484c0.408203,1.917969-0.828125,3.822266-2.74707,4.229492
	c-1.917969,0.407227-3.822266-0.828125-4.229004-2.746094l-2.949707-13.878906
	c-0.408203-1.917969,0.827637-3.820313,2.746582-4.228516c1.917969-0.408203,3.822266,0.828125,4.229004,2.74707
	L298.520996,557.771484z"/>
<path fill="#182650" d="M208.643066,219.473633c0.605957,1.865234-0.423828,3.886719-2.290039,4.493164
	c-1.865234,0.606445-3.886719-0.424316-4.493164-2.289063l-4.383789-13.493164
	c-0.605957-1.866211,0.423828-3.887695,2.289063-4.494141c1.865723-0.605957,3.887695,0.423828,4.494141,2.290039
	L208.643066,219.473633z"/>
<path fill="#182650" d="M316.842285,552.475586c0.605469,1.865234-0.424316,3.887695-2.290039,4.493164
	c-1.865234,0.607422-3.887207-0.423828-4.493164-2.289063l-4.384277-13.493164
	c-0.605957-1.865234,0.424316-3.887695,2.289063-4.493164c1.866211-0.606445,3.888184,0.423828,4.494141,2.290039
	L316.842285,552.475586z"/>
<path fill="#182650" d="M192.094727,225.425781c0.797852,1.791992-0.016113,3.911133-1.807129,4.708008
	c-1.791992,0.797852-3.911133-0.014648-4.708984-1.806641l-5.77002-12.960938
	c-0.797852-1.791992,0.015137-3.910156,1.807129-4.708008c1.791992-0.79834,3.911133,0.014648,4.708008,1.806641
	L192.094727,225.425781z"/>
<path fill="#182650" d="M334.509277,545.293945c0.797852,1.792969-0.015137,3.910156-1.807129,4.708008
	c-1.791992,0.798828-3.910645-0.014648-4.708984-1.806641l-5.77002-12.960938
	c-0.797852-1.791992,0.015137-3.911133,1.807129-4.708984c1.791992-0.796875,3.910645,0.015625,4.708008,1.807617
	L334.509277,545.293945z"/>
<path fill="#182650" d="M162.98877,224.354492c-0.980957-1.697754-0.393066-3.890625,1.304688-4.870605
	c1.699219-0.980957,3.891113-0.394043,4.87207,1.305176l15.663086,27.129883c0.980957,1.699219,0.394043,3.890625-1.304688,4.87207
	c-1.699219,0.979492-3.891113,0.392578-4.871094-1.306152L162.98877,224.354492z"/>
<path fill="#182650" d="M351.329102,536.304688c0.980957,1.699219,0.393066,3.891602-1.305176,4.87207
	c-1.69873,0.980469-3.890625,0.393555-4.87207-1.305664l-15.663086-27.129883
	c-0.980469-1.698242-0.393555-3.890625,1.305176-4.871094c1.699219-0.980469,3.891113-0.394531,4.871094,1.304688
	L351.329102,536.304688z"/>
<path fill="#182650" d="M161.310059,242.338379c1.152832,1.587402,0.797852,3.828125-0.789063,4.980957
	c-1.586914,1.15332-3.828125,0.797852-4.980957-0.789063l-8.338867-11.477539c-1.15332-1.586914-0.79834-3.828125,0.788574-4.981445
	c1.586426-1.152832,3.828125-0.797852,4.981445,0.789063L161.310059,242.338379z"/>
<path fill="#182650" d="M367.116699,525.607422c1.15332,1.586914,0.79834,3.828125-0.789063,4.981445
	c-1.585938,1.152344-3.827637,0.797852-4.980469-0.789063l-8.339355-11.478516
	c-1.152832-1.586914-0.797852-3.828125,0.789063-4.980469c1.586914-1.15332,3.828125-0.798828,4.980957,0.789063
	L367.116699,525.607422z"/>
<path fill="#182650" d="M132.617676,247.342285c-1.312012-1.45752-1.194336-3.724121,0.263672-5.035645
	c1.458008-1.313477,3.724121-1.194336,5.036133,0.263672l9.494141,10.542969c1.312012,1.458008,1.192871,3.724121-0.26416,5.036133
	c-1.458008,1.312988-3.724121,1.194336-5.037109-0.263672L132.617676,247.342285z"/>
<path fill="#182650" d="M381.700684,513.317383c1.311523,1.458008,1.193848,3.724609-0.26416,5.036133
	c-1.458008,1.313477-3.724121,1.194336-5.036133-0.263672l-9.494141-10.542969
	c-1.312012-1.458008-1.192871-3.723633,0.26416-5.036133c1.458008-1.3125,3.724121-1.194336,5.037109,0.263672
	L381.700684,513.317383z"/>
<path fill="#182650" d="M119.398926,261.088867c-1.458008-1.311523-1.576172-3.579102-0.26416-5.036133
	c1.312012-1.458008,3.579102-1.57666,5.036133-0.263672l10.543945,9.493164c1.457031,1.3125,1.575684,3.579102,0.26416,5.035645
	c-1.313477,1.458008-3.579102,1.577148-5.037109,0.26416L119.398926,261.088867z"/>
<path fill="#182650" d="M394.919434,499.571289c1.45752,1.311523,1.575684,3.579102,0.263672,5.036133
	c-1.312988,1.458008-3.579102,1.577148-5.036133,0.263672l-10.543945-9.493164
	c-1.457031-1.3125-1.576172-3.579102-0.263672-5.035156c1.311523-1.458984,3.578613-1.577148,5.036621-0.264648
	L394.919434,499.571289z"/>
<path fill="#182650" d="M106.900391,271.161133c1.152832-1.586914,3.39502-1.942383,4.980957-0.789063l11.478027,8.338867
	c1.586914,1.15332,1.941895,3.39502,0.789063,4.980957c-1.152832,1.587402-3.394043,1.941895-4.980957,0.789063l-11.478027-8.338867
	C106.102051,274.989258,105.747559,272.748047,106.900391,271.161133"/>
<path fill="#182650" d="M407.41748,489.499023c-1.15332,1.586914-3.39502,1.942383-4.980957,0.789063l-11.478027-8.338867
	c-1.586914-1.15332-1.941895-3.395508-0.789063-4.981445c1.152832-1.586914,3.394043-1.941406,4.980957-0.789063l11.478027,8.339844
	C408.215332,485.670898,408.570313,487.912109,407.41748,489.499023"/>
<path fill="#182650" d="M96.312012,287.464844c0.981445-1.697754,3.17334-2.285645,4.871094-1.304688l27.130859,15.663086
	c1.698242,0.980957,2.286133,3.172852,1.305176,4.87207c-0.980957,1.698242-3.172852,2.286133-4.87207,1.304688
	l-27.129883-15.663086C95.919434,291.356445,95.331055,289.164063,96.312012,287.464844"/>
<path fill="#182650" d="M418.005371,473.194336c-0.980957,1.699219-3.172852,2.286133-4.87207,1.305664l-27.128906-15.663086
	c-1.69873-0.981445-2.287109-3.172852-1.305664-4.871094c0.980957-1.699219,3.172852-2.287109,4.871094-1.305664
	l27.130859,15.663086C418.398438,469.303711,418.986816,471.49707,418.005371,473.194336"/>
<path fill="#182650" d="M87.486328,304.787109c0.797852-1.791992,2.916992-2.605469,4.708008-1.807129l12.960938,5.77002
	c1.791992,0.797852,2.60498,2.916992,1.808105,4.708984c-0.797852,1.791016-2.916992,2.60498-4.708984,1.806641l-12.960938-5.770508
	C87.502441,308.698242,86.687988,306.579102,87.486328,304.787109"/>
<path fill="#182650" d="M426.831543,455.873047c-0.797852,1.791992-2.916992,2.604492-4.708008,1.806641l-12.960938-5.769531
	c-1.791992-0.797852-2.60498-2.916992-1.808105-4.708008c0.797852-1.791992,2.916992-2.606445,4.708984-1.808594l12.960938,5.771484
	C426.81543,451.962891,427.629395,454.081055,426.831543,455.873047"/>
<path fill="#182650" d="M80.519531,322.936523c0.605957-1.865234,2.62793-2.896484,4.493652-2.290039l13.493164,4.384766
	c1.865234,0.606445,2.89502,2.62793,2.289063,4.493164s-2.62793,2.895508-4.493164,2.290039l-13.492676-4.383789
	C80.943359,326.824219,79.913574,324.801758,80.519531,322.936523"/>
<path fill="#182650" d="M433.79834,437.723633c-0.605957,1.865234-2.62793,2.896484-4.493164,2.290039l-13.494141-4.383789
	c-1.864746-0.607422-2.894531-2.628906-2.288574-4.494141c0.605957-1.866211,2.62793-2.896484,4.492676-2.290039l13.493164,4.383789
	C433.374512,433.836914,434.404297,435.858398,433.79834,437.723633"/>
<path fill="#182650" d="M75.487793,341.714844c0.408203-1.917969,2.311035-3.155273,4.22998-2.74707l13.876953,2.949219
	c1.918945,0.408203,3.154785,2.311523,2.74707,4.230469c-0.408203,1.917969-2.311035,3.154297-4.22998,2.746094l-13.876953-2.949219
	C76.315918,345.536133,75.07959,343.633789,75.487793,341.714844"/>
<path fill="#182650" d="M438.830078,418.945313c-0.408203,1.918945-2.311035,3.155273-4.22998,2.74707l-13.876953-2.950195
	c-1.918945-0.408203-3.155273-2.310547-2.74707-4.229492c0.408203-1.917969,2.311035-3.154297,4.22998-2.746094l13.876953,2.949219
	C438.001953,415.123047,439.237793,417.027344,438.830078,418.945313"/>
<path fill="#182650" d="M72.446777,360.916016c0.205078-1.951172,1.96875-3.378906,3.918945-3.173828l14.109863,1.482422
	c1.951172,0.205078,3.378906,1.969727,3.173828,3.919922c-0.20459,1.950195-1.96875,3.37793-3.918945,3.173828l-14.109863-1.483398
	C73.669434,364.629883,72.241699,362.867188,72.446777,360.916016"/>
<path fill="#182650" d="M441.871582,399.744141c-0.205078,1.951172-1.969238,3.378906-3.919434,3.173828l-14.109863-1.483398
	c-1.951172-0.204102-3.378906-1.96875-3.173828-3.919922c0.205078-1.949219,1.96875-3.37793,3.918945-3.172852l14.109863,1.483398
	C440.648438,396.030273,442.076172,397.792969,441.871582,399.744141"/>
<path fill="#182650" d="M71.429199,380.330078c0-1.960938,1.60498-3.566406,3.565918-3.566406h31.327148
	c1.961914,0,3.565918,1.605469,3.565918,3.566406s-1.604004,3.56543-3.565918,3.56543H74.995117
	C73.03418,383.895508,71.429199,382.291016,71.429199,380.330078"/>
<path fill="#182650" d="M442.888672,380.330078c0,1.960938-1.60498,3.56543-3.565918,3.56543h-31.327148
	c-1.961914,0-3.565918-1.604492-3.565918-3.56543s1.604004-3.566406,3.565918-3.566406h31.327148
	C441.283691,376.763672,442.888672,378.369141,442.888672,380.330078"/>
<path fill="#182650" d="M72.446777,399.744141c-0.205078-1.951172,1.222656-3.713867,3.173828-3.918945l14.109863-1.483398
	c1.950195-0.205078,3.714355,1.223633,3.918945,3.172852c0.205078,1.951172-1.222656,3.71582-3.173828,3.919922l-14.109863,1.483398
	C74.415527,403.123047,72.651855,401.695313,72.446777,399.744141"/>
<path fill="#182650" d="M441.871582,360.916016c0.20459,1.951172-1.223145,3.713867-3.174316,3.918945l-14.109863,1.483398
	c-1.950195,0.204102-3.713867-1.223633-3.918945-3.173828s1.222656-3.714844,3.173828-3.919922l14.109863-1.482422
	C439.902344,357.537109,441.666504,358.964844,441.871582,360.916016"/>
<path fill="#182650" d="M93.595215,418.742188l-13.877441,2.950195c-1.918945,0.408203-3.821777-0.828125-4.22998-2.74707
	c-0.407715-1.918945,0.828125-3.822266,2.74707-4.229492l13.876953-2.949219c1.918945-0.408203,3.822266,0.828125,4.22998,2.746094
	C96.75,416.431641,95.513184,418.333984,93.595215,418.742188"/>
<path fill="#182650" d="M420.723145,341.917969l13.876953-2.950195c1.918945-0.408203,3.821777,0.828125,4.229492,2.74707
	c0.408203,1.917969-0.827637,3.821289-2.746582,4.229492l-13.877441,2.949219
	c-1.918945,0.408203-3.821777-0.828125-4.229492-2.746094C417.567871,344.228516,418.804688,342.325195,420.723145,341.917969"/>
<path fill="#182650" d="M98.506348,435.628906l-13.493164,4.383789c-1.865234,0.606445-3.888184-0.423828-4.494141-2.289063
	s0.424805-3.887695,2.290039-4.493164l13.493164-4.384766c1.864746-0.605469,3.887695,0.424805,4.493652,2.289063
	C101.401855,433.000977,100.371094,435.023438,98.506348,435.628906"/>
<path fill="#182650" d="M415.812012,325.03125l13.492676-4.383789c1.864746-0.606445,3.888184,0.423828,4.494141,2.288086
	c0.605957,1.866211-0.425293,3.888672-2.290039,4.494141l-13.493164,4.383789
	c-1.865723,0.606445-3.888184-0.423828-4.493652-2.289063C412.915527,327.65918,413.946777,325.636719,415.812012,325.03125"/>
<path fill="#182650" d="M105.155762,451.910156l-12.960938,5.770508c-1.791992,0.796875-3.910156-0.015625-4.708008-1.807617
	c-0.79834-1.791992,0.014648-3.910156,1.806641-4.708008l12.960938-5.771484c1.791992-0.796875,3.911133,0.016602,4.708008,1.808594
	C107.760742,448.993164,106.947754,451.112305,105.155762,451.910156"/>
<path fill="#182650" d="M409.162598,308.75l12.960938-5.770508c1.791992-0.796875,3.909668,0.015625,4.708008,1.807617
	c0.797852,1.791992-0.015137,3.910156-1.807129,4.708008l-12.961426,5.771484
	c-1.791992,0.796875-3.910645-0.016602-4.70752-1.808594C406.557129,311.66748,407.370117,309.54834,409.162598,308.75"/>
<path fill="#182650" d="M128.313965,458.836914l-27.129883,15.664063c-1.699219,0.979492-3.891602,0.392578-4.87207-1.306641
	c-0.980469-1.697266-0.393066-3.889648,1.305664-4.871094l27.129883-15.664063
	c1.698242-0.979492,3.891113-0.392578,4.871094,1.306641C130.599609,455.663086,130.012695,457.855469,128.313965,458.836914"/>
<path fill="#182650" d="M386.004395,301.823242l27.129883-15.663574c1.69873-0.97998,3.890625-0.393066,4.871094,1.306152
	c0.980469,1.697754,0.393555,3.889648-1.305176,4.871094l-27.130371,15.663574
	c-1.69873,0.97998-3.890625,0.393066-4.870605-1.306152C383.718262,304.996582,384.305176,302.804688,386.004395,301.823242"/>
<path fill="#182650" d="M123.359863,481.949219l-11.478516,8.338867c-1.586914,1.152344-3.827637,0.797852-4.980957-0.789063
	c-1.152832-1.585938-0.797852-3.828125,0.789063-4.981445l11.478027-8.338867
	c1.586914-1.152344,3.828125-0.797852,4.980957,0.789063S124.946777,480.795898,123.359863,481.949219"/>
<path fill="#182650" d="M390.958496,278.710938l11.477539-8.338867c1.586914-1.152832,3.828125-0.797852,4.981445,0.789063
	c1.152832,1.585938,0.797852,3.828125-0.789063,4.981445l-11.478516,8.338867
	c-1.586914,1.152832-3.827637,0.797852-4.980469-0.789063C389.016113,282.105469,389.371094,279.864258,390.958496,278.710938"/>
<path fill="#182650" d="M134.714355,495.37793l-10.542969,9.493164c-1.458008,1.313477-3.723633,1.194336-5.037109-0.263672
	c-1.311523-1.457031-1.192871-3.724609,0.26416-5.036133l10.543945-9.493164c1.457031-1.313477,3.724121-1.194336,5.036133,0.263672
	C136.290527,491.798828,136.172363,494.066406,134.714355,495.37793"/>
<path fill="#182650" d="M379.603027,265.282227l10.542969-9.493164c1.458008-1.312988,3.724121-1.193848,5.037109,0.26416
	c1.312012,1.456543,1.193359,3.724121-0.263672,5.035645l-10.543945,9.493164
	c-1.457031,1.312988-3.724121,1.194336-5.036133-0.263672C378.027344,268.861328,378.14502,266.59375,379.603027,265.282227"/>
<path fill="#182650" d="M147.411133,507.546875l-9.493164,10.542969c-1.312988,1.458008-3.578613,1.577148-5.036621,0.263672
	c-1.457031-1.311523-1.576172-3.578125-0.26416-5.036133l9.493652-10.542969c1.3125-1.458008,3.579102-1.576172,5.036133-0.263672
	C148.60498,503.823242,148.723145,506.088867,147.411133,507.546875"/>
<path fill="#182650" d="M366.906738,253.113281l9.493164-10.542969c1.3125-1.458008,3.578613-1.577148,5.036621-0.263672
	c1.457031,1.311523,1.576172,3.578125,0.26416,5.035645l-9.494141,10.543457c-1.312012,1.458008-3.579102,1.57666-5.036133,0.263672
	C365.712402,256.837402,365.594727,254.571289,366.906738,253.113281"/>
<path fill="#182650" d="M161.310059,518.321289l-8.338867,11.478516c-1.15332,1.586914-3.39502,1.941406-4.981445,0.789063
	c-1.586914-1.15332-1.941895-3.395508-0.788574-4.981445l8.338867-11.477539c1.152832-1.586914,3.394043-1.942383,4.980957-0.789063
	S162.462891,516.734375,161.310059,518.321289"/>
<path fill="#182650" d="M353.007813,242.338379l8.338867-11.478027c1.152832-1.586914,3.39502-1.941895,4.980957-0.789063
	c1.586914,1.15332,1.942383,3.394531,0.789063,4.981445l-8.338867,11.477539c-1.15332,1.586914-3.394043,1.942383-4.980957,0.789063
	C352.209473,246.166504,351.85498,243.925781,353.007813,242.338379"/>
<path fill="#182650" d="M184.829102,512.741211l-15.664063,27.129883c-0.97998,1.699219-3.171875,2.286133-4.871094,1.305664
	c-1.69873-0.980469-2.285645-3.172852-1.305176-4.871094l15.663086-27.130859c0.981445-1.698242,3.17334-2.285156,4.87207-1.304688
	C185.222168,508.850586,185.810059,511.042969,184.829102,512.741211"/>
<path fill="#182650" d="M351.329102,224.354492l-15.664063,27.130371c-0.97998,1.69873-3.171875,2.285645-4.871094,1.306152
	c-1.69873-0.981445-2.285645-3.172852-1.305176-4.87207l15.663086-27.129883c0.981445-1.699219,3.17334-2.286133,4.87207-1.305176
	C351.722168,220.463867,352.310059,222.656738,351.329102,224.354492"/>
<path fill="#182650" d="M192.094727,535.234375l-5.770996,12.960938c-0.796875,1.791992-2.916016,2.604492-4.708008,1.806641
	s-2.60498-2.916016-1.807129-4.708008l5.77002-12.960938c0.797852-1.791992,2.916992-2.604492,4.708984-1.806641
	C192.078613,531.323242,192.892578,533.442383,192.094727,535.234375"/>
<path fill="#182650" d="M322.223145,225.425781l5.770996-12.960938c0.796875-1.791992,2.916016-2.60498,4.708008-1.806641
	c1.791992,0.797852,2.60498,2.916016,1.807129,4.708008l-5.77002,12.960938c-0.79834,1.791992-2.916992,2.604492-4.709473,1.806641
	C322.239258,229.336914,321.425293,227.217773,322.223145,225.425781"/>
<path fill="#182650" d="M208.643066,541.186523l-4.383789,13.493164c-0.606445,1.866211-2.628418,2.895508-4.494141,2.290039
	c-1.865234-0.606445-2.89502-2.62793-2.289063-4.494141l4.383789-13.493164c0.606445-1.864258,2.62793-2.895508,4.493164-2.289063
	C208.219238,537.299805,209.249023,539.321289,208.643066,541.186523"/>
<path fill="#182650" d="M316.842285,208.184082l-4.384277,13.493164c-0.605957,1.865723-2.62793,2.895996-4.494141,2.290039
	c-1.864746-0.605957-2.89502-2.628418-2.289063-4.494141l4.384277-13.492676c0.605957-1.865234,2.62793-2.896484,4.493164-2.289063
	C316.417969,204.296875,317.447754,206.319336,316.842285,208.184082"/>
<path fill="#182650" d="M225.723145,545.376953l-2.950195,13.876953c-0.407227,1.918945-2.311035,3.155273-4.229004,2.74707
	c-1.918945-0.408203-3.155273-2.310547-2.74707-4.229492l2.949707-13.87793c0.407227-1.917969,2.311523-3.15332,4.229492-2.74707
	C224.89502,541.554688,226.130859,543.458984,225.723145,545.376953"/>
<path fill="#182650" d="M298.520996,202.888672l-2.950195,13.876953c-0.406738,1.918945-2.311035,3.155273-4.229004,2.74707
	c-1.918945-0.408203-3.154785-2.310547-2.746582-4.229004l2.949707-13.87793c0.406738-1.917969,2.311035-3.153809,4.229004-2.74707
	C297.692871,199.066895,298.929199,200.969727,298.520996,202.888672"/>
<path fill="#182650" d="M243.146973,547.758789l-1.48291,14.110352c-0.205078,1.949219-1.96875,3.378906-3.918945,3.173828
	c-1.950684-0.205078-3.378906-1.969727-3.173828-3.919922l1.48291-14.110352c0.205078-1.950195,1.967773-3.378906,3.918945-3.172852
	C241.924316,544.044922,243.352051,545.807617,243.146973,547.758789"/>
<path fill="#182650" d="M279.746582,199.537109l-1.48291,14.110352c-0.205078,1.950684-1.96875,3.378906-3.918945,3.173828
	c-1.950684-0.205078-3.378906-1.96875-3.173828-3.919922l1.48291-14.110352c0.205078-1.949707,1.967773-3.37793,3.918945-3.172852
	S279.95166,197.585938,279.746582,199.537109"/>
<path fill="#182650" d="M257.158691,283.692383c-55.856934,0-101.137695,45.28125-101.137695,101.137695
	s45.280762,101.137695,101.137695,101.137695c55.857422,0,101.138184-45.28125,101.138184-101.137695
	S313.016113,283.692383,257.158691,283.692383"/>
<path fill="#182650" d="M257.158691,430.149414c-25.028809,0-45.318848-20.290039-45.318848-45.319336
	c0-25.030273,20.290039-45.319336,45.318848-45.319336c25.029297,0,45.319336,20.289063,45.319336,45.319336
	C302.478027,409.859375,282.187988,430.149414,257.158691,430.149414"/>
<path fill="#F0542A" d="M792.162598,441.491211l-20.679688,34.760742l-21.561523-34.760742h-41.580078l40.481445,58.520508
	l-39.820313,58.958984h39.160156l21.55957-35.638672l22.220703,35.638672h39.819336l-39.599609-59.178711l40.040039-58.300781
	H792.162598z M1210.615723,459.091797l-1.980469-17.600586h-30.581055v117.479492h35.420898v-55.65918
	c0-18.480469,7.479492-30.579102,25.960938-30.579102c3.740234,0,7.478516,0.439453,11,1.538086v-32.998047
	c-2.419922-0.661133-5.280273-1.101563-11.220703-1.101563C1227.555176,440.170898,1215.23584,446.550781,1210.615723,459.091797
	 M1422.594238,459.091797l-1.978516-17.600586h-30.581055v117.479492h35.420898v-55.65918
	c0-18.480469,7.478516-30.579102,25.959961-30.579102c3.740234,0,7.479492,0.439453,11,1.538086v-32.998047
	c-2.419922-0.661133-5.28125-1.101563-11.219727-1.101563C1439.535645,440.170898,1427.215332,446.550781,1422.594238,459.091797
	 M890.279785,527.291992c-6.380859-5.5-9.679688-13.860352-9.679688-27.05957c0-13.861328,3.298828-21.78125,9.679688-27.280273
	c3.299805-2.640625,8.359375-5.280273,15.180664-5.280273c6.819336,0,11.879883,2.419922,15.180664,5.280273
	c6.158203,5.499023,9.678711,13.418945,9.678711,27.280273c0,13.859375-3.299805,21.779297-9.678711,27.05957
	c-3.300781,2.638672-8.361328,5.058594-15.180664,5.058594C898.63916,532.350586,893.57959,530.151367,890.279785,527.291992
	 M878.180176,459.532227l-1.100586-18.041016h-30.361328v163.680664h35.420898v-57.860352
	c3.520508,6.600586,13.421875,14.740234,30.800781,14.740234c13.199219,0,23.539063-3.960938,32.119141-10.78125
	c13.200195-10.338867,20.460938-28.15918,20.460938-51.038086c0-22.881836-6.380859-42.021484-21.34082-52.801758
	c-7.700195-5.939453-17.15918-9.019531-30.359375-9.019531C895.118652,438.411133,882.359863,448.750977,878.180176,459.532227
	 M1084.218262,523.111328c-4.179688-6.15918-5.280273-12.540039-5.280273-22.878906
	c0-10.561523,1.100586-16.720703,5.280273-22.881836c3.521484-5.27832,9.459961-9.019531,18.041016-9.019531
	c8.579102,0,14.520508,3.741211,18.039063,9.019531c4.180664,6.161133,5.28125,12.320313,5.28125,22.881836
	c0,10.338867-1.100586,16.719727-5.28125,22.878906c-3.518555,5.280273-9.459961,9.019531-18.039063,9.019531
	C1093.678223,532.130859,1087.739746,528.391602,1084.218262,523.111328 M1057.818848,457.772461
	c-9.679688,11.21875-14.520508,25.519531-14.520508,42.459961c0,16.938477,4.84082,31.238281,14.520508,42.458984
	c8.139648,9.900391,22.660156,19.360352,44.44043,19.360352c21.560547,0,36.299805-9.459961,44.439453-19.360352
	c9.680664-11.220703,14.520508-25.520508,14.520508-42.458984c0-16.94043-4.839844-31.241211-14.520508-42.459961
	c-8.360352-9.460938-22.65918-19.361328-44.439453-19.361328C1080.258301,438.411133,1066.178223,448.09082,1057.818848,457.772461
	 M1317.096191,465.03125c14.080078,0,21.339844,8.799805,21.339844,22.879883h-44
	C1295.096191,476.03125,1303.016113,465.03125,1317.096191,465.03125 M1279.477051,451.170898
	c-12.320313,10.560547-20.458984,26.400391-20.458984,49.061523c0,18.698242,6.598633,34.979492,18.039063,46.419922
	c9.900391,9.898438,23.980469,15.399414,40.699219,15.399414c25.741211,0,47.960938-14.740234,53.241211-40.040039h-31.679688
	c-1.760742,6.160156-5.941406,13.419922-21.121094,13.419922c-15.400391,0-23.760742-12.099609-23.760742-25.079102h78.320313
	c0.220703-1.541016,0.660156-5.72168,0.660156-10.780273c0-35.861328-19.359375-61.161133-56.099609-61.161133
	C1303.236816,438.411133,1289.816895,442.371094,1279.477051,451.170898 M585.764648,402.991211v155.979492h110v-31.898438
	h-74.36084v-32.121094h64.901855v-30.359375h-64.901855v-29.701172h74.36084v-31.899414H585.764648z M983.499512,399.691406
	v126.94043c0,22.879883,12.539063,33.660156,32.999023,33.660156c8.580078,0,13.200195-1.759766,16.5-2.861328v-28.160156
	c-2.419922,0.660156-3.959961,0.660156-6.601563,0.660156c-4.837891,0-7.258789-2.418945-7.258789-7.478516V399.691406H983.499512z
	 M736.501465,348.970703h35.419922V231.491211h-35.419922V348.970703z M900.837402,247.771973
	c-9.458984,11.219238-14.298828,25.52002-14.298828,42.459961s4.620117,31.23877,14.298828,42.459473
	c8.580078,9.900391,22.22168,19.360352,44.000977,19.360352c30.360352,0,52.581055-17.599609,53.679688-46.419922h-31.679688
	c-1.099609,7.700195-6.820313,16.94043-20.459961,16.94043c-9.680664,0-15.399414-3.740234-19.139648-9.240234
	c-4.179688-6.160156-5.5-12.759766-5.5-23.100098c0-9.899902,1.540039-16.720215,5.719727-22.880859
	c3.740234-5.938965,9.679688-9.458984,18.259766-9.458984c12.541016,0,20.239258,7.259277,20.459961,17.600098h31.900391
	c-1.099609-27.94043-21.121094-47.081055-51.700195-47.081055C923.497559,228.411133,909.637207,237.871094,900.837402,247.771973
	 M1199.717285,255.03125c14.080078,0,21.339844,8.800781,21.339844,22.880859h-44
	C1177.716309,266.03125,1185.637207,255.03125,1199.717285,255.03125 M1162.096191,241.170898
	c-12.319336,10.560059-20.458984,26.400391-20.458984,49.061035c0,18.699219,6.599609,34.97998,18.039063,46.42041
	c9.901367,9.898438,23.981445,15.399414,40.700195,15.399414c25.741211,0,47.959961-14.740234,53.241211-40.040039h-31.681641
	c-1.759766,6.15918-5.939453,13.419922-21.118164,13.419922c-15.400391,0-23.760742-12.099609-23.760742-25.07959h78.319336
	c0.22168-1.540039,0.661133-5.720215,0.661133-10.779785c0-35.861328-19.361328-61.161133-56.101563-61.161133
	C1185.855957,228.411133,1172.436035,232.371094,1162.096191,241.170898 M1304.094238,248.87207l-1.759766-17.380859h-30.581055
	v117.479492h35.420898v-61.818359c0-15.180664,6.160156-27.94043,20.899414-27.94043c9.460938,0,15.621094,5.5,15.621094,17.819336
	v71.939453h35.419922v-76.77832c0-25.521484-13.860352-43.78125-40.260742-43.78125
	C1322.354004,228.411133,1309.153809,235.670898,1304.094238,248.87207 M254.535645,222.25293l-16.088867,27.868164
	c-1.166992,2.02002,0.291016,4.542969,2.623047,4.542969h32.177734c2.333008,0,3.789063-2.522949,2.624023-4.542969
	l-16.089844-27.868164c-0.583008-1.009766-1.603516-1.514648-2.623047-1.514648
	C256.138672,220.738281,255.118652,221.243164,254.535645,222.25293 M811.07959,203.331055v28.160156h-22.441406v28.379883
	h22.441406v53.240234c0,23.760742,13.199219,38.060547,38.719727,38.060547c14.300781,0,22.220703-3.081055,24.860352-4.621094
	v-28.160156c-5.941406,1.101563-8.139648,1.760742-14.080078,1.760742c-11.219727,0-14.080078-5.499023-14.080078-14.080078
	v-46.200195h27.5v-28.379883h-27.5V194.09082L811.07959,203.331055z M676.844238,192.992188l-55,69.297852v-69.297852h-36.07959
	v155.978516h36.07959v-39.159668l20.241211-24.199707l37.179199,63.359375h42.459961l-55-91.078613l54.779785-64.899902H676.844238z
	 M736.281738,218.952148h35.859375v-29.259766h-35.859375V218.952148z M1017.637207,189.692383v159.27832h35.419922v-61.818359
	c0-15.180664,6.161133-27.94043,20.460938-27.94043c10.339844,0,16.05957,5.5,16.05957,16.720215v73.038574h35.420898v-76.338867
	c0-26.399902-13.200195-44.220703-42.240234-44.220703c-12.540039,0-22.880859,5.060547-29.701172,13.200195v-51.918945H1017.637207
	z"/>
</svg>
