<svg xmlns="http://www.w3.org/2000/svg" xmlns:xlink="http://www.w3.org/1999/xlink" viewBox="-60 0 635 635">
  <defs>
    <linearGradient id="g" x1="272.99" y1="605.17" x2="272.99" y2="189.69" gradientUnits="userSpaceOnUse">
      <stop offset="0" stop-color="#f78745"/>
      <stop offset="1" stop-color="#f85026"/>
    </linearGradient>
  </defs>
  <path fill="#062451" d="M505.9995,360.7394c-10.3938-108.6848-90.3652-197.054-194.8655-220.051-14.9011-3.2793-24.8962-17.2935-22.915-32.4221l8.9402-68.2662C297.1592,17.9087,279.2505.0001,257.1592.0001s-40,17.9086-40,40l8.9408,68.2706c1.9679,15.0264-7.8502,29.1191-22.6543,32.3604C98.8174,163.5383,18.7212,251.964,8.3186,360.7394c-6.7427,8.4098-8.3186,24.0906-8.3186,24.0906,0,0,1.5779,15.6992,8.3308,24.1052,12.2144,126.5544,119.525,226.0754,249.1848,225.8945,129.782-.1809,236.3721-99.2581,248.4834-225.9087,6.7432-8.4097,8.3193-24.0911,8.3193-24.0911,0,0-1.5759-15.6808-8.3188-24.0906h0ZM257.1592,18.171c11.7134,0,21.2087,9.4956,21.2087,21.2087s-9.4954,21.2087-21.2087,21.2087-21.2087-9.4954-21.2087-21.2087,9.4955-21.2087,21.2087-21.2087ZM257.1592,584.83c-110.457,0-200-89.543-200-200s89.543-200,200-200,200,89.543,200,200-89.543,200-200,200Z"/>
  <path fill="#062451" d="M253.593,229.4935v-31.3271c0-1.9614,1.6047-3.5662,3.5662-3.5662s3.5662,1.6047,3.5662,3.5662v31.3271c0,1.9614-1.6047,3.5662-3.5662,3.5662s-3.5662-1.6047-3.5662-3.5662h0Z"/>
  <path fill="#062451" d="M260.7253,531.1664v31.3271c0,1.9614-1.6047,3.5662-3.5662,3.5662s-3.5662-1.6047-3.5662-3.5662v-31.3271c0-1.9614,1.6047-3.5662,3.5662-3.5662s3.5662,1.6047,3.5662,3.5662Z"/>
  <path fill="#062451" d="M243.1475,212.9012c.2051,1.9507-1.2231,3.7144-3.1738,3.9194h0c-1.9507.2051-3.7144-1.2231-3.9193-3.1738l-1.483-14.1099c-.2051-1.9506,1.2231-3.7144,3.1738-3.9193s3.7144,1.2233,3.9194,3.1738l1.4829,14.1097h0Z"/>
  <path fill="#062451" d="M279.7471,561.1229c.2051,1.9507-1.2231,3.7144-3.1738,3.9194-1.9507.2048-3.7144-1.2234-3.9194-3.1738l-1.4829-14.1099c-.2051-1.9507,1.2231-3.7144,3.1738-3.9194h0c1.9507-.2051,3.7144,1.2231,3.9194,3.1738l1.4829,14.1099Z"/>
  <path fill="#062451" d="M225.7231,215.2831c.4078,1.9185-.8281,3.8219-2.7467,4.2297-1.9186.4077-3.8219-.8284-4.2296-2.7468l-2.9497-13.8774c-.408-1.9186.8281-3.8219,2.7467-4.2297,1.9186-.4077,3.8219.8284,4.2296,2.7468l2.9497,13.8774Z"/>
  <path fill="#062451" d="M298.5212,557.7714c.408,1.9185-.8281,3.8218-2.7468,4.2297-1.9185.4077-3.8218-.8284-4.2295-2.7468l-2.9497-13.8774c-.4077-1.9185.8281-3.8218,2.7466-4.2297,1.9187-.4077,3.822.8284,4.2297,2.7468l2.9497,13.8774h0Z"/>
  <path fill="#062451" d="M208.6433,219.4733c.6061,1.8652-.4242,3.8875-2.2896,4.4935-1.8655.6061-3.8875-.4242-4.4937-2.2897l-4.3842-13.493c-.6061-1.8654.4242-3.8876,2.2897-4.4935,1.8652-.6062,3.8875.4241,4.4935,2.2896l4.3842,13.4932h0Z"/>
  <path fill="#062451" d="M316.8423,552.476c.6062,1.8652-.4241,3.8872-2.2896,4.4934-1.8652.6062-3.8875-.4241-4.4937-2.2896l-4.384-13.4932c-.6062-1.8655.4241-3.8875,2.2896-4.4934,1.8655-.6062,3.8875.4241,4.4937,2.2896l4.384,13.4932Z"/>
  <path fill="#062451" d="M192.095,225.4257c.7979,1.7917-.0155,3.9106-1.8074,4.7083-1.7917.7979-3.9105-.0154-4.7083-1.8073l-5.7705-12.9609c-.7979-1.7919.0154-3.9105,1.8073-4.7084,1.7919-.7977,3.9105.0156,4.7084,1.8074l5.7705,12.9609Z"/>
  <path fill="#062451" d="M334.5095,545.2943c.7979,1.7917-.0154,3.9104-1.8074,4.7083-1.7917.7976-3.9104-.0156-4.7083-1.8074l-5.7705-12.9609c-.7979-1.792.0156-3.9106,1.8074-4.7085h0c1.7917-.7976,3.9106.0156,4.7083,1.8076l5.7705,12.9609h0Z"/>
  <path fill="#062451" d="M162.989,224.3547c-.9807-1.6986-.3933-3.8907,1.3053-4.8715,1.6986-.9807,3.8907-.3933,4.8715,1.3053l15.6636,27.1301c.9807,1.6986.3933,3.8907-1.3053,4.8715s-3.8907.3933-4.8715-1.3053l-15.6636-27.1301Z"/>
  <path fill="#062451" d="M351.3293,536.3051c.9807,1.6987.3933,3.8909-1.3054,4.8716-1.6985.9807-3.8906.3933-4.8713-1.3054l-15.6636-27.1301c-.9807-1.6985-.3933-3.8906,1.3054-4.8713,1.6985-.9807,3.8906-.3933,4.8713,1.3054l15.6636,27.1299Z"/>
  <path fill="#062451" d="M161.3103,242.3383c1.153,1.5869.7979,3.8284-.7888,4.9812-1.5869,1.1528-3.8284.7979-4.9812-.7888l-8.3392-11.478c-1.1528-1.5868-.7979-3.8284.7889-4.9812s3.8284-.7979,4.9812.7891l8.3391,11.4778h0Z"/>
  <path fill="#062451" d="M367.1172,525.6073c1.1531,1.5867.7979,3.8281-.7888,4.9812-1.5867,1.1528-3.8284.7979-4.9812-.7891l-8.3391-11.4778c-1.1531-1.5869-.7979-3.8284.7888-4.9812,1.5869-1.1531,3.8284-.7979,4.9812.7888l8.3391,11.478h0Z"/>
  <path fill="#062451" d="M132.6178,247.3422c-1.3124-1.4575-1.1937-3.7239.2639-5.0364h.0001c1.4575-1.3123,3.7239-1.1936,5.0363.264l9.4933,10.5433c1.3125,1.4575,1.1936,3.7239-.2639,5.0364s-3.7239,1.1936-5.0364-.2639l-9.4933-10.5435h0Z"/>
  <path fill="#062451" d="M381.7007,513.3177c1.3123,1.4575,1.1936,3.7239-.2642,5.0361h0c-1.4575,1.3125-3.7239,1.1938-5.0361-.2637l-9.4934-10.5435c-1.3125-1.4575-1.1936-3.7241.2639-5.0364,1.4575-1.3125,3.7239-1.1936,5.0364.2639l9.4934,10.5435h0Z"/>
  <path fill="#062451" d="M119.399,261.0889c-1.4576-1.3124-1.5763-3.5787-.2639-5.0364,1.3124-1.4576,3.5787-1.5763,5.0363-.2639l10.5435,9.4933c1.4575,1.3125,1.5764,3.5789.2639,5.0364-1.3124,1.4575-3.5787,1.5764-5.0364.2639l-10.5433-9.4933h-.0001Z"/>
  <path fill="#062451" d="M394.9194,499.5712c1.4575,1.3123,1.5762,3.5786.2639,5.0361h-.0002c-1.3123,1.4575-3.5786,1.5764-5.0361.2642l-10.5435-9.4934c-1.4575-1.3125-1.5764-3.5789-.2639-5.0364,1.3123-1.4575,3.5789-1.5764,5.0364-.2639l10.5435,9.4934h0Z"/>
  <path fill="#062451" d="M106.9006,271.1608c1.1528-1.5868,3.3945-1.9419,4.9812-.7889l11.478,8.3392c1.5867,1.1528,1.9418,3.3943.7888,4.9812-1.1528,1.5867-3.3943,1.9418-4.9812.7888l-11.4778-8.3391c-1.5869-1.1528-1.9419-3.3944-.7891-4.9812h0Z"/>
  <path fill="#062451" d="M407.4177,489.4991c-1.1528,1.5867-3.3945,1.9417-4.9812.7888l-11.478-8.3391c-1.5867-1.1528-1.9419-3.3943-.7888-4.9812h0c1.1528-1.5867,3.3943-1.9419,4.9812-.7891l11.4778,8.3394c1.5869,1.1528,1.9419,3.3945.7891,4.9812h-.0001Z"/>
  <path fill="#062451" d="M96.3125,287.4651c.9807-1.6986,3.1729-2.286,4.8715-1.3053l27.1301,15.6636c1.6986.9807,2.286,3.1729,1.3053,4.8715-.9807,1.6986-3.1729,2.286-4.8715,1.3053l-27.1301-15.6636c-1.6986-.9807-2.286-3.1729-1.3053-4.8715Z"/>
  <path fill="#062451" d="M418.0059,473.1947c-.9807,1.6987-3.1729,2.2861-4.8716,1.3054l-27.1299-15.6636c-1.6987-.9807-2.2861-3.1729-1.3054-4.8713.9807-1.6987,3.1729-2.2861,4.8713-1.3054l27.1304,15.6636c1.6985.9807,2.2859,3.1729,1.3052,4.8713Z"/>
  <path fill="#062451" d="M87.4866,304.7869c.7979-1.7919,2.9165-2.6051,4.7084-1.8074l12.9609,5.7706c1.7919.7977,2.6051,2.9165,1.8073,4.7083-.7976,1.7917-2.9164,2.6051-4.7083,1.8074l-12.9609-5.7705c-1.7917-.7979-2.605-2.9165-1.8074-4.7084Z"/>
  <path fill="#062451" d="M426.8318,455.8729c-.7979,1.792-2.9165,2.6052-4.7083,1.8074l-12.9609-5.7705c-1.792-.7979-2.6052-2.9165-1.8074-4.7083.7976-1.792,2.9163-2.6052,4.7083-1.8074l12.9609,5.7705c1.7917.7979,2.605,2.9165,1.8074,4.7083Z"/>
  <path fill="#062451" d="M80.5198,322.9363c.6061-1.8654,2.6282-2.8956,4.4935-2.2896l13.493,4.3842c1.8655.6061,2.8958,2.6282,2.2897,4.4937-.6061,1.8652-2.6282,2.8956-4.4935,2.2896l-13.4932-4.3843c-1.8654-.606-2.8958-2.6282-2.2896-4.4935h0Z"/>
  <path fill="#062451" d="M433.7986,437.7235c-.606,1.8655-2.6282,2.8958-4.4934,2.2896l-13.4932-4.384c-1.8655-.6062-2.8958-2.6282-2.2896-4.4937h0c.606-1.8655,2.6279-2.8958,4.4934-2.2896l13.4932,4.384c1.8655.6062,2.8958,2.6284,2.2896,4.4937Z"/>
  <path fill="#062451" d="M75.488,341.7145c.4078-1.9185,2.3113-3.1545,4.2297-2.7467l13.8774,2.9498c1.9185.4077,3.1545,2.311,2.7468,4.2296-.4078,1.9185-2.3112,3.1545-4.2297,2.7467l-13.8774-2.9497c-1.9185-.4077-3.1545-2.3112-2.7468-4.2297Z"/>
  <path fill="#062451" d="M438.8303,418.9452c-.408,1.9187-2.3113,3.1548-4.2297,2.7468l-13.8774-2.9497c-1.9185-.4077-3.1545-2.311-2.7468-4.2297.408-1.9185,2.3113-3.1543,4.2297-2.7466l13.8774,2.9497c1.9185.4077,3.1545,2.311,2.7468,4.2295h0Z"/>
  <path fill="#062451" d="M72.4469,360.9159c.205-1.9507,1.9688-3.3789,3.9193-3.1738l14.1099,1.4829c1.9507.2051,3.3789,1.9688,3.1738,3.9194s-1.9688,3.3789-3.9194,3.1738l-14.1097-1.4829c-1.9506-.2051-3.3788-1.9688-3.1738-3.9194h0Z"/>
  <path fill="#062451" d="M441.8716,399.744c-.2051,1.9507-1.9688,3.3789-3.9194,3.1738l-14.1099-1.4829c-1.9507-.2051-3.3789-1.9688-3.1738-3.9194s1.9688-3.3789,3.9194-3.1738l14.1099,1.4829c1.9504.2051,3.3787,1.9688,3.1738,3.9194Z"/>
  <path fill="#062451" d="M71.4294,380.33c0-1.9614,1.6047-3.5662,3.5662-3.5662h31.3271c1.9614,0,3.5662,1.6047,3.5662,3.5662s-1.6047,3.5662-3.5662,3.5662h-31.3271c-1.9614,0-3.5662-1.6047-3.5662-3.5662Z"/>
  <path fill="#062451" d="M442.8889,380.33c0,1.9614-1.6047,3.5662-3.5662,3.5662h-31.3271c-1.9614,0-3.5662-1.6047-3.5662-3.5662s1.6047-3.5662,3.5662-3.5662h31.3271c1.9614,0,3.5662,1.6047,3.5662,3.5662Z"/>
  <path fill="#062451" d="M72.4469,399.744c-.205-1.9507,1.2233-3.7144,3.1738-3.9194l14.1097-1.4829c1.9507-.2051,3.7144,1.2231,3.9194,3.1738s-1.2231,3.7144-3.1738,3.9194l-14.1099,1.4829c-1.9506.2051-3.7144-1.2231-3.9193-3.1738h0Z"/>
  <path fill="#062451" d="M441.8716,360.9159c.2048,1.9507-1.2234,3.7144-3.1738,3.9194l-14.1099,1.4829c-1.9507.2051-3.7144-1.2231-3.9194-3.1738s1.2231-3.7144,3.1738-3.9194l14.1099-1.4829c1.9507-.2051,3.7144,1.2231,3.9194,3.1738Z"/>
  <path fill="#062451" d="M93.5952,418.7423l-13.8774,2.9497c-1.9185.408-3.8219-.8281-4.2297-2.7468-.4077-1.9185.8284-3.8218,2.7468-4.2295l13.8774-2.9497c1.9186-.4077,3.8219.8281,4.2297,2.7466.4077,1.9187-.8284,3.822-2.7468,4.2297h0Z"/>
  <path fill="#062451" d="M420.7231,341.9176l13.8774-2.9498c1.9185-.4078,3.8218.8282,4.2297,2.7467.4077,1.9186-.8284,3.822-2.7468,4.2297l-13.8774,2.9497c-1.9185.4078-3.8218-.8281-4.2297-2.7467-.4077-1.9186.8284-3.8219,2.7468-4.2296Z"/>
  <path fill="#062451" d="M98.5063,435.629l-13.493,4.384c-1.8654.6062-3.8876-.4241-4.4935-2.2896-.6062-1.8652.4242-3.8875,2.2896-4.4937l13.4932-4.384c1.8654-.6062,3.8875.4241,4.4935,2.2896h0c.6061,1.8655-.4242,3.8875-2.2897,4.4937h0Z"/>
  <path fill="#062451" d="M415.812,325.0309l13.4932-4.3842c1.8652-.6061,3.8875.4242,4.4934,2.2896.6062,1.8654-.4241,3.8876-2.2896,4.4935l-13.4932,4.3843c-1.8655.6061-3.8875-.4243-4.4934-2.2896-.6062-1.8655.4241-3.8876,2.2896-4.4937h0Z"/>
  <path fill="#062451" d="M105.1559,451.9098l-12.9609,5.7705c-1.7919.7979-3.9105-.0154-4.7084-1.8074-.7976-1.7917.0156-3.9104,1.8074-4.7083l12.9609-5.7705c1.7919-.7979,3.9106.0154,4.7083,1.8074.7979,1.7917-.0154,3.9104-1.8073,4.7083Z"/>
  <path fill="#062451" d="M409.1626,308.7501l12.9609-5.7706c1.7917-.7977,3.9104.0155,4.7083,1.8074.7976,1.7919-.0156,3.9105-1.8074,4.7084l-12.9609,5.7705c-1.792.7977-3.9106-.0156-4.7083-1.8074-.7979-1.7917.0154-3.9105,1.8074-4.7083Z"/>
  <path fill="#062451" d="M128.3141,458.8365l-27.1301,15.6636c-1.6986.9807-3.8907.3933-4.8715-1.3054-.9807-1.6985-.3933-3.8906,1.3053-4.8713l27.1301-15.6636c1.6986-.9807,3.8907-.3933,4.8715,1.3054.9807,1.6985.3933,3.8906-1.3053,4.8713h0Z"/>
  <path fill="#062451" d="M386.0044,301.8234l27.1299-15.6636c1.6987-.9807,3.8909-.3933,4.8716,1.3053s.3933,3.8907-1.3052,4.8715l-27.1304,15.6636c-1.6985.9807-3.8906.3933-4.8713-1.3053s-.3933-3.8907,1.3054-4.8715Z"/>
  <path fill="#062451" d="M123.3599,481.9489l-11.478,8.3391c-1.5867,1.1528-3.8284.7979-4.9812-.7888s-.7979-3.8284.7891-4.9812l11.4778-8.3394c1.5869-1.1528,3.8284-.7976,4.9812.7891h0c1.153,1.5869.7979,3.8284-.7888,4.9812h0Z"/>
  <path fill="#062451" d="M390.9585,278.7111l11.478-8.3392c1.5867-1.153,3.8284-.7979,4.9812.7889,1.1528,1.5868.7979,3.8284-.7891,4.9812l-11.4778,8.3391c-1.5869,1.153-3.8284.7979-4.9812-.7888-1.1528-1.5869-.7979-3.8284.7888-4.9812h.0001Z"/>
  <path fill="#062451" d="M134.7148,495.3781l-10.5435,9.4934c-1.4575,1.3123-3.7239,1.1934-5.0363-.2642s-1.1937-3.7239.2639-5.0361l10.5433-9.4934c1.4576-1.3125,3.724-1.1936,5.0364.2639,1.3125,1.4575,1.1936,3.7239-.2639,5.0364h0Z"/>
  <path fill="#062451" d="M379.6035,265.2819l10.5435-9.4933c1.4575-1.3124,3.7239-1.1937,5.0361.2639h.0002c1.3123,1.4576,1.1936,3.724-.2639,5.0364l-10.5435,9.4933c-1.4575,1.3125-3.7241,1.1936-5.0364-.2639-1.3125-1.4575-1.1936-3.7239.2639-5.0364h0Z"/>
  <path fill="#062451" d="M147.4114,507.5468l-9.4933,10.5435c-1.3124,1.4575-3.5787,1.5762-5.0363.2637h-.0001c-1.4576-1.3123-1.5763-3.5786-.2639-5.0361l9.4933-10.5435c1.3125-1.4575,3.5789-1.5764,5.0364-.2639,1.4575,1.3123,1.5764,3.5789.2639,5.0364v-.0002Z"/>
  <path fill="#062451" d="M366.907,253.1132l9.4934-10.5433c1.3123-1.4576,3.5786-1.5763,5.0361-.264,1.4578,1.3125,1.5764,3.5789.2642,5.0364l-9.4934,10.5435c-1.3125,1.4575-3.5789,1.5764-5.0364.2639s-1.5764-3.5789-.2639-5.0364h0Z"/>
  <path fill="#062451" d="M161.3103,518.3217l-8.3391,11.4778c-1.1528,1.5869-3.3944,1.9419-4.9812.7891-1.5868-1.1531-1.9419-3.3945-.7889-4.9812l8.3392-11.478c1.1528-1.5867,3.3943-1.9419,4.9812-.7888,1.5867,1.1528,1.9418,3.3943.7888,4.9812h0Z"/>
  <path fill="#062451" d="M353.0081,242.3383l8.3391-11.4778c1.1528-1.5869,3.3945-1.9419,4.9812-.7891s1.9419,3.3944.7888,4.9812l-8.3391,11.478c-1.1528,1.5867-3.3943,1.9417-4.9812.7888-1.5867-1.1528-1.9419-3.3943-.7888-4.9812h0Z"/>
  <path fill="#062451" d="M184.8293,512.7411l-15.6636,27.1301c-.9807,1.6987-3.1729,2.2861-4.8715,1.3054-1.6986-.9807-2.286-3.1729-1.3053-4.8716l15.6636-27.1299c.9807-1.6987,3.1729-2.2861,4.8715-1.3054s2.286,3.1729,1.3053,4.8713h0Z"/>
  <path fill="#062451" d="M351.3293,224.3547l-15.6636,27.1301c-.9807,1.6986-3.1729,2.286-4.8713,1.3053-1.6987-.9807-2.2861-3.1729-1.3054-4.8715l15.6636-27.1301c.9807-1.6986,3.1729-2.286,4.8713-1.3053,1.6987.9807,2.2861,3.1729,1.3054,4.8715Z"/>
  <path fill="#062451" d="M192.095,535.2343l-5.7705,12.9609c-.7979,1.7917-2.9165,2.605-4.7084,1.8074-1.7919-.7979-2.6051-2.9165-1.8073-4.7083l5.7705-12.9609c.7977-1.792,2.9165-2.6052,4.7083-1.8076h0c1.7917.7979,2.6052,2.9165,1.8074,4.7085h0Z"/>
  <path fill="#062451" d="M322.2234,225.4257l5.7705-12.9609c.7979-1.7917,2.9165-2.6051,4.7083-1.8074,1.792.7979,2.6052,2.9165,1.8074,4.7084l-5.7705,12.9609c-.7976,1.7919-2.9165,2.6051-4.7083,1.8073h0c-1.7917-.7976-2.6052-2.9165-1.8074-4.7083Z"/>
  <path fill="#062451" d="M208.6433,541.1866l-4.3842,13.4932c-.6061,1.8655-2.6283,2.8958-4.4935,2.2896-1.8655-.6062-2.8958-2.6282-2.2897-4.4934l4.3842-13.4932c.6062-1.8655,2.6282-2.8958,4.4937-2.2896,1.8654.606,2.8956,2.6279,2.2896,4.4934h0Z"/>
  <path fill="#062451" d="M316.8423,208.1841l-4.384,13.493c-.6062,1.8655-2.6282,2.8958-4.4937,2.2897s-2.8958-2.6283-2.2896-4.4935l4.384-13.4932c.6062-1.8655,2.6284-2.8958,4.4937-2.2896,1.8655.606,2.8958,2.6282,2.2896,4.4935h0Z"/>
  <path fill="#062451" d="M225.7231,545.3768l-2.9497,13.8774c-.4077,1.9185-2.311,3.1545-4.2296,2.7468-1.9186-.408-3.1547-2.3113-2.7467-4.2297l2.9497-13.8774c.4077-1.9185,2.311-3.1545,4.2296-2.7468,1.9186.408,3.1545,2.3113,2.7467,4.2297Z"/>
  <path fill="#062451" d="M298.5212,202.8885l-2.9497,13.8774c-.4077,1.9185-2.311,3.1545-4.2297,2.7468-1.9185-.4078-3.1543-2.3113-2.7466-4.2297l2.9497-13.8774c.4077-1.9185,2.311-3.1545,4.2295-2.7468,1.9187.4078,3.1548,2.3112,2.7468,4.2297h0Z"/>
  <path fill="#062451" d="M243.1475,547.7587l-1.4829,14.1099c-.2051,1.9504-1.9688,3.3787-3.9194,3.1738-1.9507-.2051-3.3789-1.9688-3.1738-3.9194l1.483-14.1099c.205-1.9507,1.9686-3.3789,3.9193-3.1738h0c1.9507.2051,3.3789,1.9688,3.1738,3.9194Z"/>
  <path fill="#062451" d="M279.7471,199.537l-1.4829,14.1099c-.2051,1.9507-1.9688,3.3789-3.9194,3.1738s-3.3789-1.9688-3.1738-3.9194l1.4829-14.1097c.2051-1.9506,1.9688-3.3788,3.9194-3.1738s3.3789,1.9688,3.1738,3.9193h0Z"/>
  <path fill="url(#g)" d="M275.872,250.1207c1.1659,2.0193-.2915,4.5436-2.6233,4.5436h-32.1791c-2.3318,0-3.7892-2.5243-2.6232-4.5436l16.0894-27.8679c1.166-2.0195,4.0808-2.0195,5.2466,0l16.0896,27.8679Z"/>
  <path fill="#062451" d="M257.1592,283.6923c-55.8568,0-101.1377,45.2809-101.1377,101.1377s45.2809,101.1377,101.1377,101.1377,101.1377-45.2809,101.1377-101.1377-45.2809-101.1377-101.1377-101.1377ZM247.7149,299.4969h7.2363l8.7846,16.3455v-16.3455h5.7612v25.5272h-6.6972l-9.3237-17.354v17.354h-5.7612v-25.5272ZM195.0438,396.1235h-6.624l-4.5366-16.9218-4.5732,16.9218h-6.5157l-5.7612-25.5264h6.0483l3.5287,17.5328,4.6802-17.1372h5.5093l4.5366,17.3892,3.4189-17.7845h5.8331v-.0002s-5.5444,25.5264-5.5444,25.5264ZM258.6062,471.3629c-6.1217,0-10.5132-3.5273-10.6217-8.7113h5.9048c.1801,2.4829,1.9072,3.8159,4.8955,3.8159,3.0249,0,4.4296-1.3331,4.4296-3.0249,0-1.188-.8643-2.2325-3.0249-2.5195l-3.6723-.4688c-4.752-.5757-7.9921-3.0234-7.9921-7.56,0-4.3214,3.9594-8.1372,10.1529-8.1372s9.936,3.4204,10.2246,8.1723h-5.94c-.0366-1.9789-1.4413-3.3471-4.3214-3.3471-2.7715,0-4.2846,1.3315-4.2846,2.8798,0,1.4032,1.0093,2.2325,2.9883,2.4843l3.3135.4321c4.752.5757,8.4243,2.8433,8.4243,7.6318,0,5.1855-4.5732,8.3526-10.4766,8.3526ZM257.1592,430.1493c-25.0292,0-45.3193-20.2902-45.3193-45.3193s20.2902-45.3193,45.3193-45.3193,45.3193,20.2902,45.3193,45.3193-20.2902,45.3193-45.3193,45.3193ZM336.6183,380.6782v4.9688h-10.6201v5.2559h12.1685v5.2208h-18.0015v-25.5264h18.0015v5.2208h-12.1685v4.8603h10.6201Z"/>
</svg>
